<?xml version="1.0" encoding="UTF-8"?>
<!DOCTYPE svg PUBLIC "-//W3C//DTD SVG 1.1//EN" "http://www.w3.org/Graphics/SVG/1.1/DTD/svg11.dtd">
<svg xmlns="http://www.w3.org/2000/svg" version="1.1" width="32px" height="32px" style="shape-rendering:geometricPrecision; text-rendering:geometricPrecision; image-rendering:optimizeQuality; fill-rule:evenodd; clip-rule:evenodd" xmlns:xlink="http://www.w3.org/1999/xlink">
<g><path style="opacity:0.67" fill="#727272" d="M 9.5,-0.5 C 13.5,-0.5 17.5,-0.5 21.5,-0.5C 25.8333,1.83333 29.1667,5.16667 31.5,9.5C 31.5,13.5 31.5,17.5 31.5,21.5C 29.1667,25.8333 25.8333,29.1667 21.5,31.5C 17.5,31.5 13.5,31.5 9.5,31.5C 5.16667,29.1667 1.83333,25.8333 -0.5,21.5C -0.5,17.5 -0.5,13.5 -0.5,9.5C 1.83333,5.16667 5.16667,1.83333 9.5,-0.5 Z M 12.5,5.5 C 11.7095,6.40128 10.7095,7.06795 9.5,7.5C 9.48944,5.98261 8.82277,4.81595 7.5,4C 10.7761,0.301075 12.4427,0.801075 12.5,5.5 Z M 18.5,1.5 C 23.5686,3.05048 23.5686,4.71715 18.5,6.5C 18.5,4.83333 18.5,3.16667 18.5,1.5 Z M 15.5,7.5 C 20.5,7.83333 23.1667,10.5 23.5,15.5C 20.8333,15.5 18.1667,15.5 15.5,15.5C 15.5,12.8333 15.5,10.1667 15.5,7.5 Z M 6.5,10.5 C 5.962,12.1172 5.62867,13.7839 5.5,15.5C 5.83333,21.8333 9.16667,25.1667 15.5,25.5C 21.8333,25.1667 25.1667,21.8333 25.5,15.5C 25.4809,13.9397 25.1476,12.4397 24.5,11C 25.7216,8.03458 27.2216,7.86791 29,10.5C 30.8333,24.6667 24.6667,30.8333 10.5,29C 1.49485,24.4369 -0.838481,17.6036 3.5,8.5C 4.51776,9.19251 5.51776,9.85917 6.5,10.5 Z M 7.5,15.5 C 10.1667,15.5 12.8333,15.5 15.5,15.5C 15.5,18.1667 15.5,20.8333 15.5,23.5C 10.5,23.1667 7.83333,20.5 7.5,15.5 Z"/></g>
<g><path style="opacity:0.932" fill="#0066b1" d="M 12.5,5.5 C 14.1788,5.28519 15.1788,5.95186 15.5,7.5C 15.5,10.1667 15.5,12.8333 15.5,15.5C 12.8333,15.5 10.1667,15.5 7.5,15.5C 6.83333,15.5 6.16667,15.5 5.5,15.5C 5.62867,13.7839 5.962,12.1172 6.5,10.5C 7.83333,9.83333 8.83333,8.83333 9.5,7.5C 10.7095,7.06795 11.7095,6.40128 12.5,5.5 Z"/></g>
<g><path style="opacity:0.932" fill="#0066b1" d="M 15.5,15.5 C 18.1667,15.5 20.8333,15.5 23.5,15.5C 24.1667,15.5 24.8333,15.5 25.5,15.5C 25.1667,21.8333 21.8333,25.1667 15.5,25.5C 15.5,24.8333 15.5,24.1667 15.5,23.5C 15.5,20.8333 15.5,18.1667 15.5,15.5 Z"/></g>
<g><path style="opacity:0.431" fill="#737373" d="M 5.5,15.5 C 6.16667,15.5 6.83333,15.5 7.5,15.5C 7.83333,20.5 10.5,23.1667 15.5,23.5C 15.5,24.1667 15.5,24.8333 15.5,25.5C 9.16667,25.1667 5.83333,21.8333 5.5,15.5 Z"/></g>
</svg>
